<svg width="99" height="99" viewBox="0 0 99 99" fill="none" xmlns="http://www.w3.org/2000/svg">
<g clip-path="url(#clip0)">
<path d="M25.74 28.8201H1.10002C0.49268 28.8201 0 29.3126 0 29.9201V91.0801C0 92.9025 1.47746 94.3801 3.30006 94.3801H25.74C26.3473 94.3801 26.84 93.8876 26.84 93.2801V29.9201C26.84 29.3126 26.3473 28.8201 25.74 28.8201ZM17.3809 80.96H9.46088C7.63847 80.96 6.16082 79.4826 6.16082 77.6599C6.16082 75.8373 7.63828 74.3599 9.46088 74.3599H17.3809C19.2033 74.3599 20.6809 75.8373 20.6809 77.6599C20.6809 79.4826 19.2035 80.96 17.3809 80.96ZM17.3809 64.9H9.46088C7.63847 64.9 6.16082 63.4225 6.16082 61.5999C6.16082 59.7775 7.63828 58.2998 9.46088 58.2998H17.3809C19.2033 58.2998 20.6809 59.7773 20.6809 61.5999C20.6809 63.4225 19.2035 64.9 17.3809 64.9ZM17.3809 48.8401H9.46088C7.63847 48.8401 6.16082 47.3627 6.16082 45.5401C6.16082 43.7174 7.63828 42.24 9.46088 42.24H17.3809C19.2033 42.24 20.6809 43.7174 20.6809 45.5401C20.6809 47.3627 19.2035 48.8401 17.3809 48.8401Z" fill="white"/>
<path d="M95.6999 4.62H3.30006C1.47746 4.62 0 6.09765 0 7.92006V21.1201C0 21.7275 0.492486 22.2201 1.10002 22.2201H97.9C98.5073 22.2201 99 21.7277 99 21.1201V7.92006C99 6.09765 97.5225 4.62 95.6999 4.62ZM12.5399 15.62C11.3249 15.62 10.3399 14.635 10.3399 13.42C10.3399 12.2049 11.3249 11.2199 12.5399 11.2199C13.755 11.2199 14.74 12.2049 14.74 13.42C14.74 14.635 13.755 15.62 12.5399 15.62ZM21.3399 15.62C20.1248 15.62 19.1399 14.635 19.1399 13.42C19.1399 12.2049 20.1248 11.2199 21.3399 11.2199C22.555 11.2199 23.54 12.2049 23.54 13.42C23.54 14.635 22.555 15.62 21.3399 15.62ZM30.1401 15.62C28.925 15.62 27.94 14.635 27.94 13.42C27.94 12.2049 28.925 11.2199 30.1401 11.2199C31.3552 11.2199 32.3401 12.2049 32.3401 13.42C32.3399 14.635 31.355 15.62 30.1401 15.62Z" fill="white"/>
<path d="M97.9 28.8201H34.54C33.9326 28.8201 33.4399 29.3126 33.4399 29.9201V93.2801C33.4399 93.8874 33.9324 94.3801 34.54 94.3801H95.6999C97.5223 94.3801 99 92.9027 99 91.0801V29.9201C99 29.3126 98.5075 28.8201 97.9 28.8201ZM78.32 70.4001V79.2001C78.32 81.0225 76.8425 82.5001 75.0199 82.5001H57.42C55.5976 82.5001 54.1199 81.0227 54.1199 79.2001V70.4001C54.1199 66.9351 55.5862 63.8081 57.9281 61.6001C49.9644 54.0918 55.3249 40.7001 66.22 40.7001C77.1245 40.7001 82.4666 54.1005 74.5118 61.6001C76.8538 63.8079 78.32 66.9351 78.32 70.4001Z" fill="white"/>
</g>
<defs>
<clipPath id="clip0">
<rect width="99" height="99" fill="white"/>
</clipPath>
</defs>
</svg>
