<svg width="118" height="118" viewBox="0 0 118 118" fill="none" xmlns="http://www.w3.org/2000/svg">
<path d="M48.8126 7.80908C26.188 7.80908 7.84717 26.1499 7.84717 48.7745C7.84717 71.3992 26.188 89.74 48.8126 89.74C71.4373 89.74 89.7781 71.3992 89.7781 48.7745C89.7535 26.1601 71.427 7.83371 48.8126 7.80908ZM48.8126 11.7106C60.8623 11.7201 72.1539 17.5928 79.0803 27.453L74.2034 32.3298C73.0166 31.6117 71.658 31.2274 70.2707 31.2179C65.9613 31.2179 62.4678 34.7114 62.4678 39.0209C62.4746 40.4095 62.8567 41.7704 63.5738 42.9594L50.8004 55.7328C48.3818 54.2581 45.342 54.2581 42.9234 55.7328L34.0514 46.8609C34.7685 45.6719 35.1507 44.311 35.1575 42.9223C35.1628 38.6214 31.6808 35.1306 27.3799 35.1252C23.823 35.1209 20.7152 37.5268 19.8286 40.9716H12.5914C16.2848 23.9156 31.3613 11.7362 48.8126 11.7106ZM74.1722 39.0209C74.1722 41.1757 72.4256 42.9223 70.2707 42.9223C68.1159 42.9223 66.3693 41.1757 66.3693 39.0209C66.3693 36.866 68.1159 35.1194 70.2707 35.1194C72.4256 35.1194 74.1722 36.866 74.1722 39.0209ZM50.7634 62.4297C50.7634 64.5845 49.0167 66.3312 46.8619 66.3312C44.7071 66.3312 42.9604 64.5845 42.9604 62.4297C42.9604 60.2749 44.7071 58.5282 46.8619 58.5282C49.0167 58.5282 50.7634 60.2749 50.7634 62.4297ZM31.256 42.9223C31.256 45.0772 29.5094 46.8238 27.3545 46.8238C25.1997 46.8238 23.4531 45.0772 23.4531 42.9223C23.4531 40.7675 25.1997 39.0209 27.3545 39.0209C29.5094 39.0209 31.256 40.7675 31.256 42.9223ZM66.8213 81.1826C61.3125 84.2414 55.114 85.8439 48.8126 85.8383C28.3567 85.8522 11.7625 69.2809 11.7486 48.825C11.7477 47.5049 11.8174 46.1854 11.9574 44.8728H19.8286C20.7154 48.3073 23.8074 50.7116 27.3545 50.725C28.7432 50.7182 30.1041 50.3361 31.2931 49.619L40.165 58.4909C39.4479 59.6799 39.0658 61.0408 39.059 62.4295C39.059 66.7389 42.5525 70.2324 46.8619 70.2324C51.1713 70.2324 54.6648 66.7389 54.6648 62.4295C54.658 61.0408 54.2759 59.6799 53.5588 58.4909L66.3322 45.7175C67.5212 46.4346 68.8821 46.8167 70.2707 46.8236C74.5802 46.8236 78.0737 43.33 78.0737 39.0206C78.0668 37.6319 77.6847 36.2711 76.9676 35.0821L81.2202 30.8314C91.1482 48.7119 84.7016 71.2548 66.8213 81.1826Z" fill="white"/>
<path d="M97.5811 19.5136C101.128 19.5002 104.22 17.0962 105.107 13.6614H117.089V9.75995H105.107C104.22 6.32519 101.128 3.92115 97.5811 3.90774C93.2717 3.90774 89.7782 7.40126 89.7782 11.7107C89.785 13.0994 90.1671 14.4603 90.8843 15.6492L87.4568 19.0767C71.0572 -2.28902 40.4424 -6.31485 19.0767 10.0847C-2.28902 26.4843 -6.31485 57.0995 10.0847 78.4651C25.5648 98.6326 53.941 103.525 75.2803 89.7051L81.1676 95.5924L83.926 98.3507L99.6294 114.054C103.623 118.048 110.098 118.048 114.092 114.054C118.086 110.06 118.086 103.585 114.092 99.5914L98.3887 83.888L95.6304 81.1296L89.7431 75.2423C100.194 59.1448 100.194 38.4048 89.7431 22.3071L93.6446 18.4056C94.8328 19.123 96.1932 19.5058 97.5811 19.5136ZM97.5811 7.80921C99.736 7.80921 101.483 9.55585 101.483 11.7107C101.483 13.8655 99.736 15.6122 97.5811 15.6122C95.4263 15.6122 93.6797 13.8655 93.6797 11.7107C93.6797 9.55585 95.4266 7.80921 97.5811 7.80921ZM111.334 102.35C113.832 104.792 113.878 108.797 111.436 111.296C108.993 113.794 104.988 113.84 102.489 111.397C102.455 111.364 102.421 111.33 102.388 111.296L86.6843 95.5924L95.6304 86.6463L111.334 102.35ZM92.8721 83.888L83.926 92.834L78.5263 87.4344C78.8014 87.2237 79.0589 86.9916 79.3301 86.775C79.6012 86.5585 79.9153 86.2991 80.2059 86.0552C80.6331 85.6963 81.0545 85.3335 81.4681 84.9609C81.6807 84.7658 81.8836 84.5707 82.0923 84.3756C82.8921 83.6266 83.6665 82.8521 84.4156 82.0523C84.6107 81.8436 84.8058 81.6407 85.0008 81.4281C85.3734 81.0145 85.7363 80.5932 86.0952 80.166C86.3398 79.8772 86.5797 79.5854 86.815 79.2901C87.0296 79.0209 87.2617 78.7634 87.4724 78.4883L92.8721 83.888ZM85.3071 74.8268C84.6926 75.6851 84.0586 76.5259 83.3895 77.3354C83.1945 77.5715 82.9857 77.7997 82.7848 78.0318C82.1879 78.7263 81.5714 79.4 80.9355 80.0528C80.6585 80.3388 80.3769 80.6205 80.0908 80.8975C79.4405 81.5334 78.767 82.1498 78.0699 82.7468C77.8377 82.9418 77.6095 83.1545 77.3735 83.3515C76.5639 84.0206 75.7231 84.6546 74.8648 85.2691C54.6708 99.696 26.6048 95.0208 12.1779 74.8268C-2.24903 54.6328 2.42615 26.5668 22.6202 12.1398C42.8142 -2.28707 70.8802 2.38787 85.3071 22.5821C96.4704 38.208 96.4704 59.2009 85.3071 74.8268Z" fill="white"/>
</svg>
