<svg width="111" height="112" viewBox="0 0 111 112" fill="none" xmlns="http://www.w3.org/2000/svg">
<path d="M73.396 53.4156C74.6024 53.4156 75.5805 52.4434 75.5805 51.2442C75.5805 50.045 74.6024 49.0729 73.396 49.0729C72.1895 49.0729 71.2114 50.045 71.2114 51.2442C71.2114 52.4434 72.1895 53.4156 73.396 53.4156Z" fill="white"/>
<path d="M73.771 60.5481C72.5785 60.372 71.4668 61.1917 71.29 62.3779C70.693 66.3852 67.2851 69.7087 62.1742 71.2686C56.7114 72.936 49.1287 72.3771 44.503 67.3701C43.6868 66.4868 42.3049 66.4286 41.4164 67.2394C40.5278 68.0506 40.469 69.4242 41.2849 70.3073C43.9627 73.2059 47.5997 75.1814 51.8028 76.0202C53.2869 76.3163 54.8266 76.4634 56.3763 76.4634C58.7701 76.4634 61.1875 76.1127 63.4568 75.42C70.2179 73.3566 74.7619 68.719 75.6119 63.0141C75.7886 61.8279 74.9644 60.7238 73.771 60.5481Z" fill="white"/>
<path d="M104.133 41.3452C100.163 36.7699 94.6826 33.8034 88.0862 32.612C94.4017 28.3756 99.849 24.1597 103.733 20.481C109.655 14.8721 111.641 10.9307 109.983 8.0777C108.138 4.90012 102.812 4.92205 93.2203 8.1474C85.1164 10.8725 75.0208 15.6054 64.7937 21.4746C63.0271 22.4882 61.2771 23.5261 59.5648 24.572C58.295 21.0073 59.1325 16.9354 61.9344 13.4045C64.0331 10.7598 64.5017 7.40067 63.1575 4.6376C61.7485 1.74165 58.6561 0.00781692 54.8801 0H54.7775C41.4505 0 28.4153 5.22669 18.0731 14.7173C7.71798 24.2196 1.37848 36.7988 0.222433 50.1373C-1.16845 66.201 3.99751 81.4731 14.7683 93.1401C25.3488 104.601 40.3489 111.174 55.9222 111.174C64.3064 111.174 72.1772 109.649 79.3156 106.642C85.8429 103.892 91.6394 99.9649 96.5441 94.9701C101.092 90.3388 104.677 85.0074 107.201 79.1237C109.602 73.525 110.915 67.592 110.996 61.9662C111.114 53.7849 108.741 46.6544 104.133 41.3452ZM59.8202 29.528C62.1323 28.0786 64.5403 26.6344 66.978 25.2356C76.434 19.8089 85.8502 15.3392 93.4923 12.6495C101.905 9.68885 105.349 9.8821 106.152 10.2643C106.083 10.7695 105.451 13.0176 99.9309 18.0708C95.3212 22.2904 88.5895 27.2526 80.9763 32.0433C78.5696 33.5582 76.0648 35.0639 73.5318 36.5178C70.0399 38.5211 66.5505 40.3944 63.1258 42.1095C62.4425 40.1273 61.5667 38.2037 60.5009 36.3684C59.4679 34.5899 58.2696 32.9201 56.9303 31.3751C57.8782 30.7576 58.8426 30.1401 59.8202 29.528ZM59.1679 44.0357C52.9995 46.9434 47.3394 49.1602 42.8194 50.446C42.5841 49.3228 42.1703 48.2371 41.5834 47.2257C41.027 46.267 40.329 45.41 39.5223 44.6709C42.9061 41.4249 47.6688 37.6641 53.2769 33.8166C54.5789 35.263 55.7332 36.845 56.7173 38.5394C57.7351 40.2916 58.5543 42.1347 59.1679 44.0357ZM106.627 61.9039C106.316 83.5107 86.8413 106.831 55.9222 106.831C41.5694 106.831 27.7429 100.771 17.9876 90.2042C8.05396 79.4442 3.29104 65.347 4.57554 50.5099C6.78169 25.0532 29.3022 4.34273 54.7775 4.34273H54.8755C56.9655 4.34707 58.5506 5.14353 59.2241 6.52821C59.8434 7.80107 59.5742 9.36619 58.5038 10.715C54.5667 15.6766 53.5793 21.7788 55.8038 26.9239C54.6326 27.6738 53.4816 28.4271 52.3695 29.1743C52.3642 29.1777 52.359 29.1812 52.354 29.1847C45.4074 33.8438 39.5415 38.4781 35.6386 42.3781C32.6786 41.3726 29.4263 41.6657 26.662 43.2517C22.1234 45.8575 16.164 58.0009 15.0156 60.4087C14.708 61.0532 14.7388 61.8068 15.0975 62.4246C15.4564 63.0423 16.0976 63.4456 16.8128 63.5033C18.0202 63.6006 21.4488 63.8464 25.265 63.8464C29.8957 63.8464 35.0966 63.4842 37.5848 62.0557C40.2801 60.5092 42.1483 57.9253 42.7953 54.9549C48.1525 53.5572 55.1519 50.8228 62.7326 47.1516C66.98 45.0969 71.3482 42.7846 75.7164 40.2788C77.9321 39.0068 80.1228 37.6956 82.2518 36.373C82.2647 36.3736 82.2771 36.3756 82.29 36.376C100.498 36.895 106.8 49.9032 106.627 61.9039ZM38.6666 53.0617C38.5268 55.2454 37.3061 57.2014 35.4003 58.2949C33.3344 59.4811 26.2373 59.6409 20.4101 59.376C23.0916 54.229 26.7788 48.2 28.8469 47.0127C30.7995 45.8923 33.1601 45.8432 35.1628 46.8817C36.2636 47.4515 37.175 48.3207 37.7989 49.3957C38.4479 50.514 38.7479 51.7816 38.6666 53.0617Z" fill="white"/>
<path d="M38.4437 13.4277C33.6255 13.4277 29.7056 17.324 29.7056 22.1132C29.7056 26.9024 33.6255 30.7987 38.4437 30.7987C43.2619 30.7987 47.1818 26.9024 47.1818 22.1132C47.1818 17.324 43.2619 13.4277 38.4437 13.4277ZM38.4437 26.4559C36.0346 26.4559 34.0746 24.5078 34.0746 22.1132C34.0746 19.7186 36.0346 17.7705 38.4437 17.7705C40.8528 17.7705 42.8127 19.7186 42.8127 22.1132C42.8127 24.5078 40.8528 26.4559 38.4437 26.4559Z" fill="white"/>
<path d="M27.5213 71.7745C22.7031 71.7745 18.7832 75.6708 18.7832 80.46C18.7832 85.2491 22.7031 89.1454 27.5213 89.1454C32.3395 89.1454 36.2594 85.2491 36.2594 80.46C36.2594 75.6708 32.3395 71.7745 27.5213 71.7745ZM27.5213 84.8027C25.1122 84.8027 23.1523 82.8545 23.1523 80.46C23.1523 78.0654 25.1122 76.1172 27.5213 76.1172C29.9304 76.1172 31.8904 78.0654 31.8904 80.46C31.8904 82.8545 29.9304 84.8027 27.5213 84.8027Z" fill="white"/>
<path d="M49.3665 84.8027C44.5483 84.8027 40.6284 88.699 40.6284 93.4882C40.6284 98.2773 44.5483 102.174 49.3665 102.174C54.1847 102.174 58.1046 98.2773 58.1046 93.4882C58.1046 88.699 54.1847 84.8027 49.3665 84.8027ZM49.3665 97.8309C46.9574 97.8309 44.9975 95.8827 44.9975 93.4882C44.9975 91.0936 46.9574 89.1454 49.3665 89.1454C51.7756 89.1454 53.7356 91.0936 53.7356 93.4882C53.7356 95.8827 51.7756 97.8309 49.3665 97.8309Z" fill="white"/>
<path d="M75.5809 80.46C70.7627 80.46 66.8428 84.3563 66.8428 89.1454C66.8428 93.9346 70.7627 97.8309 75.5809 97.8309C80.3991 97.8309 84.319 93.9346 84.319 89.1454C84.319 84.3563 80.3991 80.46 75.5809 80.46ZM75.5809 93.4882C73.1718 93.4882 71.2118 91.54 71.2118 89.1454C71.2118 86.7509 73.1718 84.8027 75.5809 84.8027C77.99 84.8027 79.9499 86.7509 79.9499 89.1454C79.9499 91.54 77.99 93.4882 75.5809 93.4882Z" fill="white"/>
<path d="M93.0565 58.7463C88.2383 58.7463 84.3184 62.6426 84.3184 67.4318C84.3184 72.2209 88.2383 76.1172 93.0565 76.1172C97.8747 76.1172 101.795 72.2209 101.795 67.4318C101.795 62.6426 97.8747 58.7463 93.0565 58.7463ZM93.0565 71.7745C90.6474 71.7745 88.6874 69.8263 88.6874 67.4318C88.6874 65.0372 90.6474 63.089 93.0565 63.089C95.4656 63.089 97.4255 65.0372 97.4255 67.4318C97.4255 69.8263 95.4656 71.7745 93.0565 71.7745Z" fill="white"/>
</svg>
