<svg width="121" height="107" viewBox="0 0 121 107" fill="none" xmlns="http://www.w3.org/2000/svg">
<path d="M47.7405 77.6605C47.2834 77.6605 46.823 77.5034 46.4474 77.1834L33.5207 66.1763C33.0748 65.7962 32.8184 65.2411 32.8184 64.6547C32.8184 64.0694 33.0759 63.5143 33.5207 63.1342L46.4474 52.1271C47.2868 51.4114 48.5476 51.5129 49.2632 52.3523C49.9778 53.1928 49.8775 54.4536 49.0369 55.1681L37.8972 64.6547L49.0369 74.1413C49.8775 74.8569 49.9778 76.1177 49.2632 76.9571C48.8675 77.422 48.3057 77.6605 47.7405 77.6605Z" fill="white"/>
<path d="M73.2594 77.6605C72.6942 77.6605 72.1324 77.422 71.7377 76.9571C71.0221 76.1177 71.1235 74.8569 71.9629 74.1413L83.1027 64.6547L71.9629 55.1681C71.1235 54.4536 71.0221 53.1928 71.7377 52.3523C72.4523 51.5129 73.7142 51.4114 74.5525 52.1271L87.4792 63.1342C87.9251 63.5143 88.1815 64.0694 88.1815 64.6547C88.1815 65.2411 87.9251 65.7962 87.4792 66.1763L74.5525 77.1834C74.1768 77.5034 73.7164 77.6605 73.2594 77.6605V77.6605Z" fill="white"/>
<path d="M55.9241 85.9164C55.787 85.9164 55.6488 85.9019 55.5095 85.8729C54.4304 85.6455 53.7392 84.5854 53.9666 83.5063L62.023 45.2557C62.2504 44.1766 63.3094 43.4855 64.3896 43.7129C65.4687 43.9403 66.1598 44.9993 65.9324 46.0795L57.8761 84.3301C57.6777 85.271 56.8483 85.9164 55.9241 85.9164V85.9164Z" fill="white"/>
<path d="M107.587 106.756H13.4127C6.01745 106.756 0 100.739 0 93.3429V13.4127C0 6.01745 6.01745 0 13.4127 0H107.587C114.983 0 121 6.01745 121 13.4127V93.3429C121 100.739 114.983 106.756 107.587 106.756ZM13.4127 3.99528C8.22021 3.99528 3.99528 8.22021 3.99528 13.4127V93.3429C3.99528 98.5355 8.22021 102.76 13.4127 102.76H107.587C112.78 102.76 117.005 98.5355 117.005 93.3429V13.4127C117.005 8.22021 112.78 3.99528 107.587 3.99528H13.4127Z" fill="white"/>
<path d="M119.002 31.9879H1.99764C0.894034 31.9879 0 31.0939 0 29.9902C0 28.8878 0.894034 27.9926 1.99764 27.9926H119.002C120.106 27.9926 121 28.8878 121 29.9902C121 31.0939 120.106 31.9879 119.002 31.9879Z" fill="white"/>
<path d="M34.1318 22.4289C30.6471 22.4289 27.8101 19.5918 27.8101 16.1071C27.8101 12.6212 30.6471 9.78531 34.1318 9.78531C37.6177 9.78531 40.4536 12.6212 40.4536 16.1071C40.4536 19.5918 37.6177 22.4289 34.1318 22.4289ZM34.1318 13.7806C32.8499 13.7806 31.8053 14.824 31.8053 16.1071C31.8053 17.3902 32.8499 18.4336 34.1318 18.4336C35.4149 18.4336 36.4583 17.3902 36.4583 16.1071C36.4583 14.824 35.4149 13.7806 34.1318 13.7806Z" fill="white"/>
<path d="M14.708 22.3676C11.2222 22.3676 8.38623 19.5316 8.38623 16.0458C8.38623 12.5599 11.2222 9.72401 14.708 9.72401C18.1938 9.72401 21.0298 12.5599 21.0298 16.0458C21.0298 19.5316 18.1938 22.3676 14.708 22.3676ZM14.708 13.7193C13.426 13.7193 12.3815 14.7638 12.3815 16.0458C12.3815 17.3289 13.426 18.3723 14.708 18.3723C15.9911 18.3723 17.0345 17.3289 17.0345 16.0458C17.0345 14.7638 15.9911 13.7193 14.708 13.7193Z" fill="white"/>
<path d="M53.555 22.4891C50.0703 22.4891 47.2344 19.6531 47.2344 16.1673C47.2344 12.6826 50.0703 9.84663 53.555 9.84663C57.0409 9.84663 59.8768 12.6826 59.8768 16.1673C59.8768 19.6531 57.0409 22.4891 53.555 22.4891ZM53.555 13.8408C52.2731 13.8408 51.2297 14.8842 51.2297 16.1673C51.2297 17.4504 52.2731 18.4938 53.555 18.4938C54.8381 18.4938 55.8815 17.4504 55.8815 16.1673C55.8815 14.8842 54.8381 13.8408 53.555 13.8408Z" fill="white"/>
</svg>
