<svg width="32" height="32" viewBox="0 0 32 32" fill="none" xmlns="http://www.w3.org/2000/svg">
<path d="M31.9226 25.1887C31.9902 25.7072 31.8322 26.158 31.4492 26.5411L26.9525 31.0039C26.7496 31.2293 26.4848 31.4211 26.158 31.5787C25.8311 31.7365 25.51 31.8379 25.1945 31.883C25.172 31.883 25.1042 31.8888 24.9915 31.9C24.8789 31.9112 24.7324 31.917 24.5521 31.917C24.1237 31.917 23.4305 31.8437 22.4726 31.6972C21.5146 31.5506 20.3426 31.1899 18.9565 30.6152C17.57 30.0405 15.9979 29.1782 14.2398 28.0288C12.4818 26.8794 10.6109 25.3014 8.62732 23.2953C7.04951 21.74 5.74217 20.2524 4.70532 18.8324C3.66847 17.4123 2.83449 16.0993 2.20336 14.8934C1.57218 13.6875 1.09884 12.5943 0.783272 11.6138C0.467709 10.6333 0.253577 9.78809 0.140876 9.07807C0.0281753 8.36805 -0.0169052 7.81018 0.00563505 7.40446C0.0281753 6.99873 0.0394454 6.77333 0.0394454 6.72825C0.0845258 6.41269 0.185957 6.09149 0.343738 5.76466C0.50152 5.43783 0.693111 5.17298 0.918514 4.97012L5.41529 0.473344C5.73085 0.157781 6.09149 0 6.49722 0C6.79024 0 7.04945 0.0845258 7.27485 0.253577C7.50026 0.422629 7.69185 0.631126 7.84963 0.879068L11.4673 7.74256C11.6702 8.1032 11.7265 8.49766 11.6364 8.92592C11.5462 9.35419 11.3546 9.71483 11.0616 10.0079L9.4049 11.6646C9.35982 11.7096 9.32038 11.7829 9.28657 11.8843C9.25276 11.9858 9.23585 12.0703 9.23585 12.1379C9.32601 12.6112 9.52887 13.1522 9.84444 13.7608C10.1149 14.3018 10.5319 14.9611 11.0954 15.7387C11.6589 16.5163 12.4591 17.4123 13.4959 18.4266C14.5103 19.4635 15.4119 20.2692 16.2008 20.8441C16.9895 21.4187 17.649 21.8415 18.1787 22.1119C18.7084 22.3824 19.1142 22.5458 19.3959 22.602L19.8184 22.6866C19.8634 22.6866 19.9369 22.6697 20.0382 22.6359C20.1396 22.602 20.2129 22.5626 20.258 22.5175L22.1851 20.5565C22.5911 20.1959 23.0642 20.0156 23.6052 20.0156C23.9885 20.0156 24.2927 20.0832 24.5181 20.2185H24.5518L31.0771 24.0728C31.5507 24.3661 31.8324 24.7379 31.9226 25.1887Z" fill="white"/>
</svg>
