<svg width="35" height="26" viewBox="0 0 35 26" fill="none" xmlns="http://www.w3.org/2000/svg">
<path d="M34.211 21.3817C34.211 22.1317 34 22.827 33.6621 23.4387L22.8603 11.353L33.545 2.00488C33.9606 2.66448 34.211 3.43928 34.211 4.27656V21.3817ZM17.1055 13.5474L31.9729 0.538818C31.3628 0.204824 30.6758 0 29.9347 0H4.27635C3.53433 0 2.84709 0.204824 2.23946 0.538818L17.1055 13.5474ZM21.2505 12.7604L17.8091 15.7735C17.6078 15.9489 17.3571 16.0364 17.1055 16.0364C16.8538 16.0364 16.6032 15.9489 16.4019 15.7735L12.9597 12.7603L2.02124 25.0005C2.67689 25.4118 3.44528 25.6582 4.27628 25.6582H29.9347C30.7656 25.6582 31.5343 25.4118 32.1898 25.0005L21.2505 12.7604ZM0.666155 2.00481C0.250584 2.66441 0 3.43921 0 4.27656V21.3818C0 22.1318 0.209971 22.8271 0.549183 23.4388L11.3497 11.351L0.666155 2.00481Z" fill="white"/>
</svg>
