<svg width="41" height="47" viewBox="0 0 41 47" fill="none" xmlns="http://www.w3.org/2000/svg">
<path d="M0.167998 1.92741L3.18845 40.536C3.23379 41.1157 3.62656 41.6101 4.1814 41.7859L20.0751 46.8207C20.3562 46.9097 20.6579 46.9097 20.939 46.8207L36.8327 41.7859C37.3875 41.6101 37.7803 41.1157 37.8256 40.536L40.8461 1.92741C40.911 1.09734 40.2545 0.388092 39.4212 0.388092H1.59295C0.759718 0.388092 0.103144 1.09734 0.167998 1.92741ZM33.1003 13.9064H13.4154L14.0095 19.38H32.6722L31.4513 34.9844L20.5071 38.4513L9.56284 34.9844L8.92502 26.832H14.6694V30.8309L20.6606 32.4375L26.616 30.8309L27.078 24.4578H8.73925L7.52173 8.89427H33.4923L33.1003 13.9064Z" fill="#FC490B"/>
</svg>
