<svg width="230" height="40" viewBox="0 0 230 40" fill="none" xmlns="http://www.w3.org/2000/svg">
<path d="M36.2486 8.74307H42.0536L44.8216 17.4699L47.5896 8.74307H53.4331L48.8583 21.4297L51.6262 28.7725L58.4693 8.70463H65.3508L54.4327 36H49.1658L44.8216 25.3125L40.5159 36H35.2106L24.3309 8.70463H31.1739L38.0554 28.7725L40.7465 21.4297L36.2486 8.74307ZM86.906 30.464V36H67.7223V8.70463H86.56V14.2406H74.0272V19.5459H84.7916V24.659H74.0272V30.464H86.906ZM113.303 29.0032C113.303 30.1821 113.06 31.2073 112.573 32.0787C112.086 32.9501 111.419 33.6805 110.573 34.27C109.728 34.8339 108.741 35.2696 107.613 35.5771C106.486 35.859 105.294 36 104.038 36H90.7363V8.70463H105.922C106.87 8.70463 107.729 8.90966 108.497 9.31973C109.266 9.7298 109.92 10.268 110.458 10.9344C110.996 11.5751 111.406 12.3184 111.688 13.1642C111.996 13.9843 112.15 14.8301 112.15 15.7015C112.15 17.0086 111.817 18.2388 111.15 19.3921C110.509 20.5454 109.535 21.4168 108.228 22.0063C109.792 22.4676 111.022 23.2878 111.919 24.4667C112.842 25.6457 113.303 27.1578 113.303 29.0032ZM106.883 27.7345C106.883 26.8887 106.639 26.1711 106.152 25.5816C105.665 24.9921 105.05 24.6974 104.307 24.6974H97.0411V30.6563H104.038C104.858 30.6563 105.537 30.3871 106.076 29.8489C106.614 29.3107 106.883 28.6059 106.883 27.7345ZM97.0411 14.0868V19.7381H103.231C103.923 19.7381 104.538 19.5074 105.076 19.0461C105.614 18.5848 105.883 17.8672 105.883 16.8932C105.883 15.9962 105.64 15.3042 105.153 14.8173C104.692 14.3303 104.128 14.0868 103.461 14.0868H97.0411Z" fill="white"/>
<path d="M15.8848 8.74562L22.7031 8.74561L7.07467 36.0414L-0.000138731 36.0414L15.8848 8.74562Z" fill="#56B3F8"/>
<path d="M139.885 8.70463V36H137.232V23.2365H121.047V36H118.356V8.70463H121.047V20.853H137.232V8.70463H139.885ZM157.811 33.7702C159.528 33.7702 160.95 33.4499 162.078 32.8091C163.231 32.1428 164.141 31.2842 164.807 30.2334C165.499 29.1569 165.974 27.9395 166.23 26.5812C166.512 25.2228 166.653 23.8516 166.653 22.4676V8.70463H169.344V22.4676C169.344 24.313 169.139 26.0686 168.729 27.7345C168.319 29.3748 167.652 30.8228 166.73 32.0787C165.833 33.3345 164.654 34.3341 163.193 35.0773C161.732 35.8206 159.951 36.1922 157.849 36.1922C155.696 36.1922 153.877 35.8078 152.39 35.0389C150.929 34.2444 149.75 33.2064 148.853 31.9249C147.956 30.6434 147.315 29.1826 146.931 27.5423C146.547 25.902 146.354 24.2104 146.354 22.4676V8.70463H149.007V22.4676C149.007 23.9029 149.148 25.2997 149.43 26.6581C149.712 28.0164 150.186 29.221 150.852 30.2718C151.544 31.3226 152.454 32.1684 153.582 32.8091C154.709 33.4499 156.119 33.7702 157.811 33.7702ZM178.451 13.7024V36H175.76V8.70463H177.836L195.904 31.4251V8.74307H198.595V36H196.25L178.451 13.7024ZM224.832 11.0882H215.106V36H212.415V11.0882H202.688V8.70463H224.832V11.0882Z" fill="white"/>
</svg>
