<svg width="93" height="93" viewBox="0 0 93 93" fill="none" xmlns="http://www.w3.org/2000/svg">
<g clip-path="url(#clip0)">
<path d="M43.2476 82.978V83.4476C43.2476 85.2037 44.6756 86.6318 46.4317 86.6318C48.1878 86.6318 49.6159 85.2037 49.6159 83.4476V82.978C48.6069 83.2804 47.538 83.4476 46.4317 83.4476C45.3255 83.4476 44.2566 83.2804 43.2476 82.978Z" fill="white"/>
<path d="M54.392 72.303V69.1189C54.392 64.7298 50.8207 61.1584 46.4316 61.1584C42.0425 61.1584 38.4712 64.7298 38.4712 69.1189V72.303C38.4712 76.6921 42.0425 80.2635 46.4316 80.2635C50.8207 80.2635 54.392 76.6921 54.392 72.303Z" fill="white"/>
<path d="M75.0889 82.978V83.4476C75.0889 85.2037 76.5169 86.6318 78.273 86.6318C80.0291 86.6318 81.4572 85.2037 81.4572 83.4476V82.978C80.4482 83.2804 79.3793 83.4476 78.273 83.4476C77.1668 83.4476 76.0979 83.2804 75.0889 82.978Z" fill="white"/>
<path d="M86.2338 72.303V69.1189C86.2338 64.7298 82.6625 61.1584 78.2734 61.1584C73.8843 61.1584 70.313 64.7298 70.313 69.1189V72.303C70.313 76.6921 73.8843 80.2635 78.2734 80.2635C82.6625 80.2635 86.2338 76.6921 86.2338 72.303Z" fill="white"/>
<path d="M14.5898 80.2635C18.9789 80.2635 22.5502 76.6921 22.5502 72.303V69.1189C22.5502 64.7298 18.9789 61.1584 14.5898 61.1584C10.2007 61.1584 6.62939 64.7298 6.62939 69.1189V72.303C6.62939 76.6921 10.2007 80.2635 14.5898 80.2635Z" fill="white"/>
<path d="M25.4539 86.8416L20.6015 85.4563C19.7565 87.9805 17.3956 89.8159 14.59 89.8159C11.7844 89.8159 9.42349 87.982 8.57847 85.4563L3.72526 86.8432C1.68618 87.4262 0.26123 89.316 0.26123 91.4367V93.0001H28.9187V91.4367C28.9187 89.316 27.4938 87.4262 25.4539 86.8416Z" fill="white"/>
<path d="M89.1371 86.8416L84.2846 85.4563C83.4396 87.9805 81.0787 89.8159 78.2731 89.8159C75.4675 89.8159 73.1066 87.982 72.2616 85.4563L67.4084 86.8432C65.3693 87.4262 63.9443 89.316 63.9443 91.4367V93.0001H92.6019V91.4367C92.6019 89.316 91.1769 87.4262 89.1371 86.8416Z" fill="white"/>
<path d="M11.4058 82.978V83.4476C11.4058 85.2037 12.8338 86.6318 14.5899 86.6318C16.346 86.6318 17.7741 85.2037 17.7741 83.4476V82.978C16.7651 83.2804 15.6962 83.4476 14.5899 83.4476C13.4837 83.4476 12.4148 83.2804 11.4058 82.978Z" fill="white"/>
<path d="M57.2957 86.8416L52.4433 85.4563C51.5983 87.9805 49.2374 89.8159 46.4318 89.8159C43.6262 89.8159 41.2653 87.982 40.4203 85.4563L35.5671 86.8432C33.528 87.4262 32.103 89.316 32.103 91.4367V93.0001H60.7606V91.4367C60.7606 89.316 59.3356 87.4262 57.2957 86.8416Z" fill="white"/>
<path d="M44.8396 6.0947V11.8038H48.0238V6.0947L50.0823 8.15321L52.3336 5.90191L46.4317 0L40.5298 5.90191L42.7811 8.15321L44.8396 6.0947Z" fill="white"/>
<path d="M15.7152 39.3356L13.6567 37.2771H22.55V34.0929H13.6567L15.7152 32.0344L13.4639 29.7831L7.56201 35.685L13.4639 41.5869L15.7152 39.3356Z" fill="white"/>
<path d="M70.313 34.0929V37.2771H79.2063L77.1477 39.3356L79.3991 41.5869L85.3009 35.685L79.3991 29.7831L77.1477 32.0344L79.2063 34.0929H70.313Z" fill="white"/>
<path d="M65.0702 19.2979L68.7208 15.6473V18.1722H71.9049V10.2118H63.9445V13.396H66.4694L62.8188 17.0466L65.0702 19.2979Z" fill="white"/>
<path d="M24.1427 15.6473L27.7933 19.2979L30.0446 17.0466L26.394 13.396H28.9189V10.2118H20.9585V18.1722H24.1427V15.6473Z" fill="white"/>
<path d="M63.8629 34.093H62.8328C61.0705 34.093 59.4357 34.9684 58.4585 36.4345C57.8817 37.3028 57.5762 38.3088 57.5762 39.3512C57.5762 41.4168 58.6909 43.2187 60.4836 44.1151L61.4716 44.6103C63.0319 41.9912 63.9445 38.947 63.9445 35.6851C63.9445 35.1472 63.9111 34.6185 63.8629 34.093Z" fill="white"/>
<path d="M31.7064 30.9087C34.547 30.9087 37.0128 32.8336 37.7008 35.5878L37.8135 36.0387C38.0639 37.0384 38.7962 37.8275 39.7718 38.154C41.7875 38.8264 43.2964 40.4566 43.8111 42.5167L43.9238 42.9668C44.2581 44.3031 45.4521 45.236 46.8297 45.236H47.3249C49.259 45.236 51.1061 46.1595 52.2667 47.708L54.7885 51.071C56.6068 50.0791 58.2176 48.7637 59.5757 47.2198L59.0603 46.9617C56.18 45.522 54.3921 42.6278 54.3921 39.4118C54.3921 37.6798 54.8826 36.0605 55.8108 34.669C57.3788 32.3143 60.004 30.9087 62.8345 30.9087H63.2659C62.9511 29.7971 62.5289 28.7336 62.012 27.7246H58.8799C57.0367 27.7246 55.4345 29.036 55.073 30.845C54.5118 33.6506 52.0296 35.685 49.168 35.685C46.8724 35.685 44.8092 34.4093 43.7823 32.3562L43.2475 31.2842C42.6411 30.0715 41.4214 29.3167 40.0633 29.3167C37.4917 29.3167 35.1805 27.8886 34.0308 25.5875L33.3032 24.1331C31.6015 26.0641 30.3196 28.3659 29.5981 30.9087H31.7064Z" fill="white"/>
<path d="M46.4314 53.198C48.294 53.198 50.0866 52.9003 51.7728 52.3592L49.7189 49.6189C49.1553 48.8688 48.2606 48.4218 47.323 48.4218H46.8278C43.9873 48.4218 41.5214 46.497 40.8334 43.7427L40.7207 43.2918C40.4704 42.2921 39.7381 41.5023 38.7625 41.1758C36.7467 40.5041 35.237 38.8739 34.7232 36.8139L34.6105 36.363C34.2777 35.0259 33.0837 34.093 31.7062 34.093H28.9993C28.9519 34.6185 28.9185 35.1472 28.9185 35.6851C28.9185 45.341 36.7755 53.198 46.4314 53.198Z" fill="white"/>
<path d="M40.0633 26.1325C42.6341 26.1325 44.946 27.5606 46.0958 29.8609L46.6306 30.9329C47.1149 31.8992 48.0874 32.5009 49.168 32.5009C50.5168 32.5009 51.6867 31.5408 51.9511 30.2192C52.6087 26.9286 55.5224 24.5405 58.8783 24.5405H59.9294C56.7149 20.6543 51.8578 18.1721 46.4301 18.1721C42.3954 18.1721 38.6873 19.5574 35.7231 21.8561L36.8791 24.165C37.4855 25.3777 38.7052 26.1325 40.0633 26.1325Z" fill="white"/>
</g>
<defs>
<clipPath id="clip0">
<rect width="93" height="93" fill="white"/>
</clipPath>
</defs>
</svg>
