<svg width="61" height="31" viewBox="0 0 61 31" fill="none" xmlns="http://www.w3.org/2000/svg">
<g clip-path="url(#clip0)">
<path d="M5.4138 6.87646H13.8762C16.3599 6.89732 18.1598 7.61344 19.2757 9.02363C20.3915 10.4338 20.7597 12.36 20.3808 14.802C20.2337 15.9179 19.9072 17.0123 19.402 18.0859C18.9176 19.1595 18.2444 20.1276 17.3811 20.9909C16.3284 22.0854 15.2023 22.78 14.0025 23.0749C12.8026 23.3698 11.5604 23.517 10.2765 23.517H6.48738L5.2875 29.5164H0.898438L5.4138 6.87646ZM9.10819 10.4761L7.21363 19.9489C7.33993 19.9698 7.46624 19.9805 7.59254 19.9805C7.7397 19.9805 7.88745 19.9805 8.03461 19.9805C10.0555 20.0013 11.7397 19.8018 13.0868 19.3805C14.4338 18.9385 15.3394 17.402 15.8023 14.7705C16.1812 12.5601 15.8023 11.2864 14.6656 10.9498C13.5497 10.6132 12.1502 10.4553 10.466 10.4761C10.2133 10.497 9.97146 10.5077 9.73971 10.5077C9.5294 10.5077 9.30837 10.5077 9.07661 10.5077L9.10819 10.4761Z" fill="#666BAC"/>
<path d="M25.3804 0.845459H29.7379L28.5065 6.87647H32.4219C34.569 6.91877 36.1687 7.36083 37.2214 8.20266C38.295 9.04449 38.6108 10.6447 38.1687 13.0022L36.0531 23.517H31.6325L33.6533 13.4758C33.8636 12.4231 33.8005 11.676 33.4639 11.234C33.1273 10.7919 32.401 10.5709 31.2851 10.5709L27.7802 10.5393L25.191 23.517H20.8335L25.3804 0.845459Z" fill="#666BAC"/>
<path d="M42.8479 6.87646H51.3102C53.794 6.89732 55.5938 7.61344 56.7097 9.02363C57.8256 10.4338 58.1938 12.36 57.8149 14.802C57.6677 15.9179 57.3412 17.0123 56.836 18.0859C56.3517 19.1595 55.6784 20.1276 54.8152 20.9909C53.7624 22.0854 52.6364 22.78 51.4365 23.0749C50.2367 23.3698 48.9945 23.517 47.7106 23.517H43.9215L42.7216 29.5164H38.3325L42.8479 6.87646ZM46.5423 10.4761L44.6477 19.9489C44.774 19.9698 44.9003 19.9805 45.0266 19.9805C45.1738 19.9805 45.3215 19.9805 45.4687 19.9805C47.4895 20.0013 49.1738 19.8018 50.5208 19.3805C51.8679 18.9385 52.7735 17.402 53.2364 14.7705C53.6153 12.5601 53.2364 11.2864 52.0996 10.9498C50.9838 10.6132 49.5843 10.4553 47.9 10.4761C47.6474 10.497 47.4055 10.5077 47.1738 10.5077C46.9635 10.5077 46.7424 10.5077 46.5107 10.5077L46.5423 10.4761Z" fill="#666BAC"/>
</g>
<defs>
<clipPath id="clip0">
<rect width="59.5773" height="29.7886" fill="white" transform="translate(0.898438 0.249664)"/>
</clipPath>
</defs>
</svg>
