<svg width="110" height="110" viewBox="0 0 110 110" fill="none" xmlns="http://www.w3.org/2000/svg">
<path d="M48.5654 18.5514H48.5581C47.396 18.5612 46.4577 19.5076 46.4561 20.6713C46.4536 21.8343 47.3887 22.7823 48.5524 22.797H48.5597C49.7218 22.7864 50.6602 21.8408 50.6626 20.677C50.6642 19.5133 49.7292 18.5652 48.5654 18.5514Z" fill="white"/>
<path d="M3.3335 91.0994C3.33838 95.8431 7.18359 99.6875 11.9272 99.6932H97.8647C102.608 99.6875 106.454 95.8431 106.458 91.0994V35.1115H3.3335V91.0994ZM65.3566 56.2638C64.5892 55.6111 64.498 54.4604 65.1507 53.693C65.8026 52.9272 66.9533 52.8344 67.7207 53.4879L79.5151 63.5319C79.922 63.8794 80.1564 64.3864 80.1564 64.921C80.1564 65.4549 79.922 65.9627 79.5151 66.3086L67.7207 76.3525C66.9533 77.006 65.8026 76.9132 65.1507 76.1474C64.498 75.3808 64.5892 74.2309 65.3566 73.5774L75.521 64.921L65.3566 56.2638ZM48.9341 82.1224L56.286 47.2184C56.4927 46.2329 57.4603 45.6022 58.445 45.8097C59.4305 46.0172 60.0604 46.9848 59.8529 47.9695L52.5018 82.8743C52.2935 83.8598 51.3275 84.4897 50.342 84.2822C49.3573 84.0747 48.7266 83.1079 48.9341 82.1224ZM30.2769 63.5319L42.0713 53.4879C42.8387 52.8344 43.9894 52.9272 44.6413 53.693C45.2939 54.4604 45.2028 55.6111 44.4354 56.2638L34.271 64.921L44.437 73.5774C45.2028 74.2309 45.2948 75.3808 44.6421 76.1474C43.9902 76.9132 42.8387 77.006 42.0721 76.3525L30.2777 66.3086C29.8708 65.9627 29.6364 65.4549 29.6364 64.921C29.6364 64.3864 29.8708 63.8794 30.2777 63.5319H30.2769Z" fill="white"/>
<path d="M30.8407 18.4952H30.8333C29.6834 18.5245 28.7655 19.4645 28.7647 20.6152C28.763 21.7651 29.6769 22.7075 30.8268 22.74H30.8333C31.9832 22.7107 32.9004 21.7708 32.9028 20.6217C32.9036 19.471 31.9889 18.5286 30.8398 18.4952H30.8407Z" fill="white"/>
<path d="M97.8647 9.56628H11.9272C7.18359 9.57117 3.33838 13.4164 3.3335 18.16V31.4657H106.458V18.16C106.454 13.4164 102.608 9.57117 97.8647 9.56628ZM13.1089 26.3322H13.091C9.90169 26.3274 7.32031 23.7386 7.32275 20.5494C7.32519 17.3601 9.91064 14.7762 13.0999 14.7762C16.29 14.7762 18.8763 17.3601 18.8779 20.5494C18.8812 23.7386 16.299 26.3274 13.1089 26.3322ZM36.6025 20.6364C36.5895 23.8143 34.0106 26.3843 30.8335 26.3876H30.8156C27.667 26.3314 25.145 23.7598 25.1507 20.6104C25.1548 17.4618 27.6841 14.8983 30.8327 14.8519H30.8522C34.0366 14.8649 36.609 17.4537 36.6025 20.6381V20.6364ZM54.3271 20.6926C54.3174 23.8705 51.7384 26.4421 48.5597 26.4429H48.5418C45.3704 26.4177 42.8151 23.8371 42.8192 20.6649C42.8241 17.4935 45.3892 14.9211 48.5605 14.9056H48.5776C51.7629 14.9187 54.3353 17.5074 54.328 20.6926H54.3271Z" fill="white"/>
<path d="M13.1161 18.4408H13.1087C11.9556 18.4636 11.0319 19.4052 11.0303 20.5591C11.0278 21.7139 11.9482 22.6579 13.103 22.6856H13.1087C14.2635 22.6612 15.1864 21.7204 15.1888 20.5656C15.1904 19.4117 14.27 18.4677 13.1161 18.4408Z" fill="white"/>
</svg>
